<?xml version="1.0" encoding="utf-8"?>
<!-- Generator: Adobe Illustrator 19.0.0, SVG Export Plug-In . SVG Version: 6.00 Build 0)  -->
<svg version="1.1" id="Layer_1" xmlns="http://www.w3.org/2000/svg" xmlns:xlink="http://www.w3.org/1999/xlink" x="0px" y="0px"
	 viewBox="0 0 500 500" style="enable-background:new 0 0 500 500;" xml:space="preserve">
<style type="text/css">
	.st0{fill:url(#XMLID_35_);}
	.st1{fill:url(#XMLID_36_);}
	.st2{fill:url(#XMLID_40_);}
	.st3{fill:url(#XMLID_41_);}
	.st4{fill:url(#XMLID_42_);}
	.st5{fill:url(#XMLID_43_);}
	.st6{fill:url(#XMLID_44_);}
	.st7{fill:#714896;}
	.st8{fill:#6F4795;}
	.st9{fill:#88519F;}
	.st10{fill:#85509E;}
	.st11{fill:#8D166A;}
	.st12{fill:#A70D6F;}
	.st13{fill:#9E61AD;}
	.st14{fill:#8053A3;}
	.st15{fill:url(#XMLID_45_);}
</style>
<g id="XMLID_1_">
	
		<linearGradient id="XMLID_35_" gradientUnits="userSpaceOnUse" x1="0.1526" y1="-3.992032e-002" x2="1.5831" y2="-3.992032e-002" gradientTransform="matrix(300.8726 253.6141 -232.846 327.7082 -26.0175 -107.2461)">
		<stop  offset="0" style="stop-color:#C06FBB"/>
		<stop  offset="1" style="stop-color:#6E4D9B"/>
	</linearGradient>
	<polygon id="XMLID_3_" class="st0" points="306.5,138 272.6,160.6 237.7,108.3 271.6,85.7 	"/>
	
		<linearGradient id="XMLID_36_" gradientUnits="userSpaceOnUse" x1="-0.874" y1="5.988957e-002" x2="0.5566" y2="5.988957e-002" gradientTransform="matrix(-162.7174 -205.7282 190.4942 -175.7301 203.0746 226.6437)">
		<stop  offset="0" style="stop-color:#6E4D9B"/>
		<stop  offset="0.14" style="stop-color:#77327A"/>
		<stop  offset="0.29" style="stop-color:#B31777"/>
		<stop  offset="0.84" style="stop-color:#CD0F7E"/>
		<stop  offset="1" style="stop-color:#ED2C89"/>
	</linearGradient>
	<polygon id="XMLID_4_" class="st1" points="334.1,295.1 391.9,381.9 323,427.9 265.1,341.1 255,326 324,280 	"/>
	
		<linearGradient id="XMLID_40_" gradientUnits="userSpaceOnUse" x1="6.650829e-002" y1="-1.098294e-002" x2="1.497" y2="-1.098294e-002" gradientTransform="matrix(254.3094 384.9924 -418.7573 233.8042 -104.9844 -113.3743)">
		<stop  offset="0" style="stop-color:#C06FBB"/>
		<stop  offset="1" style="stop-color:#6E4D9B"/>
	</linearGradient>
	<polygon id="XMLID_5_" class="st2" points="247.2,353.1 260,372.2 207.5,407.2 184.6,373 196.1,365.3 237.1,337.9 	"/>
	
		<linearGradient id="XMLID_41_" gradientUnits="userSpaceOnUse" x1="7.460134e-002" y1="4.662901e-003" x2="1.5051" y2="4.662901e-003" gradientTransform="matrix(366.0318 299.6452 -299.0335 366.7805 -93.9769 -111.5525)">
		<stop  offset="0" style="stop-color:#C06FBB"/>
		<stop  offset="1" style="stop-color:#6E4D9B"/>
	</linearGradient>
	<path id="XMLID_8_" class="st3" d="M362.7,254.1l14.7-9.8l22.8,34.2l-33.9,22.6L353.7,282l19.2-12.8L362.7,254.1z M353.7,282
		l-10.1-15.1l19.2-12.8l10.1,15.1L353.7,282z"/>
	
		<linearGradient id="XMLID_42_" gradientUnits="userSpaceOnUse" x1="0.1183" y1="7.253019e-002" x2="1.5489" y2="7.253019e-002" gradientTransform="matrix(341.2086 300.8726 -301.0821 340.9712 -111.2084 -27.0568)">
		<stop  offset="0" style="stop-color:#C06FBB"/>
		<stop  offset="1" style="stop-color:#6E4D9B"/>
	</linearGradient>
	<polygon id="XMLID_9_" class="st4" points="125.2,259 113.7,266.7 78.8,214.4 131.3,179.4 155.8,216 114.7,243.4 155.8,216 
		166.2,231.7 	"/>
	
		<linearGradient id="XMLID_43_" gradientUnits="userSpaceOnUse" x1="-0.8931" y1="8.314109e-002" x2="0.5374" y2="8.314109e-002" gradientTransform="matrix(-163.1742 -206.8084 191.6044 -176.1223 222.2541 228.3867)">
		<stop  offset="0" style="stop-color:#6E4D9B"/>
		<stop  offset="0.14" style="stop-color:#77327A"/>
		<stop  offset="0.29" style="stop-color:#B31777"/>
		<stop  offset="0.84" style="stop-color:#CD0F7E"/>
		<stop  offset="1" style="stop-color:#ED2C89"/>
	</linearGradient>
	<polygon id="XMLID_10_" class="st5" points="253,173.7 184.1,219.7 173.6,204.1 116.3,118.1 185.3,72.1 242.6,158.1 	"/>
	
		<linearGradient id="XMLID_44_" gradientUnits="userSpaceOnUse" x1="0.1346" y1="-7.015192e-002" x2="1.5651" y2="-7.015192e-002" gradientTransform="matrix(300.8726 305.8728 -280.8535 327.6753 -13.8322 -124.5451)">
		<stop  offset="0" style="stop-color:#C06FBB"/>
		<stop  offset="1" style="stop-color:#6E4D9B"/>
	</linearGradient>
	<polygon id="XMLID_11_" class="st6" points="291.8,147.8 272.6,160.6 262.2,145 237.7,108.3 271.6,85.7 306.5,138 	"/>
	
		<rect id="XMLID_12_" x="212.6" y="334.5" transform="matrix(0.5551 0.8318 -0.8318 0.5551 397.3842 -24.5722)" class="st7" width="18.2" height="49.3"/>
	
		<rect id="XMLID_13_" x="349.1" y="256.6" transform="matrix(0.5551 0.8318 -0.8318 0.5551 382.3697 -178.6802)" class="st8" width="18.2" height="23"/>
	
		<rect id="XMLID_14_" x="131.1" y="212.9" transform="matrix(0.5551 0.8318 -0.8318 0.5551 260.0629 -11.1622)" class="st9" width="18.8" height="49.3"/>
	
		<rect id="XMLID_15_" x="267.6" y="134.9" transform="matrix(0.5551 0.8318 -0.8318 0.5551 245.0046 -165.2764)" class="st10" width="18.8" height="23"/>
	
		<rect id="XMLID_16_" x="253.1" y="301.5" transform="matrix(0.8318 -0.5551 0.5551 0.8318 -122.8422 215.7274)" class="st11" width="82.9" height="18.2"/>
	
		<rect id="XMLID_17_" x="203.9" y="147.4" transform="matrix(-0.555 -0.8318 0.8318 -0.555 174.638 471.1857)" class="st12" width="18.8" height="82.9"/>
	
		<rect id="XMLID_18_" x="90.7" y="150.1" transform="matrix(-0.5551 -0.8318 0.8318 -0.5551 24.6011 336.7959)" class="st13" width="23.4" height="23.4"/>
	
		<rect id="XMLID_19_" x="160.9" y="383.9" transform="matrix(-0.5551 -0.8318 0.8318 -0.5551 -60.5747 758.8239)" class="st14" width="23.4" height="23.4"/>
	
		<linearGradient id="XMLID_45_" gradientUnits="userSpaceOnUse" x1="-0.3063" y1="0.7028" x2="1.1242" y2="0.7028" gradientTransform="matrix(199.8222 -158.46 199.2084 158.9483 27.941 206.5126)">
		<stop  offset="0" style="stop-color:#6E4D9B"/>
		<stop  offset="0.14" style="stop-color:#77327A"/>
		<stop  offset="0.53" style="stop-color:#B31777"/>
		<stop  offset="0.79" style="stop-color:#CD0F7E"/>
		<stop  offset="1" style="stop-color:#ED2C89"/>
	</linearGradient>
	<polygon id="XMLID_20_" class="st15" points="124.6,399 67.5,312.7 372.6,108.7 432.5,193.5 	"/>
</g>
</svg>
